<?xml version="1.0" standalone="no"?>
<!DOCTYPE svg PUBLIC "-//W3C//DTD SVG 20010904//EN"
 "http://www.w3.org/TR/2001/REC-SVG-20010904/DTD/svg10.dtd">
<svg version="1.0" xmlns="http://www.w3.org/2000/svg"
 width="700.000000pt" height="700.000000pt" viewBox="0 0 700.000000 700.000000"
 preserveAspectRatio="xMidYMid meet">
<metadata>
Created by potrace 1.11, written by Peter Selinger 2001-2013
</metadata>
<g transform="translate(0.000000,700.000000) scale(0.100000,-0.100000)"
fill="#000000" stroke="none">
<path d="M310 6862 c-66 -32 -68 -47 -68 -389 0 -167 -3 -307 -7 -311 -3 -4
-38 -7 -76 -8 -39 -1 -81 -7 -95 -14 -39 -22 -66 -73 -60 -116 13 -80 50 -106
153 -109 40 -1 76 -4 78 -7 4 -4 8 -277 6 -419 l-1 -57 -85 -3 c-80 -4 -86 -6
-117 -36 -29 -29 -32 -39 -32 -84 1 -46 5 -56 36 -84 32 -30 40 -32 113 -34
44 -1 81 -4 83 -6 4 -4 4 -466 0 -470 -2 -2 -38 -6 -81 -9 -90 -6 -122 -22
-143 -72 -19 -46 -9 -102 26 -134 30 -28 44 -31 138 -33 l62 -2 1 -50 c0 -57
0 -404 -1 -420 0 -6 -33 -12 -77 -13 -88 -3 -125 -20 -148 -68 -27 -58 -4
-129 53 -157 15 -8 58 -15 97 -16 38 -2 71 -4 73 -6 3 -2 5 -304 3 -427 l-1
-48 -62 -1 c-85 0 -127 -17 -156 -59 -18 -26 -22 -43 -18 -72 11 -79 58 -110
168 -111 l68 0 0 -46 c1 -121 1 -332 1 -382 l-1 -55 -57 -1 c-105 -1 -111 -3
-142 -33 -38 -38 -48 -85 -28 -133 23 -53 56 -70 144 -73 41 -2 77 -5 80 -7 3
-4 5 -177 3 -403 l0 -72 -85 -3 c-80 -4 -86 -6 -117 -37 -29 -28 -33 -39 -33
-82 1 -43 6 -55 33 -83 31 -30 37 -32 117 -36 l85 -3 1 -42 c0 -49 0 -369 -1
-411 l0 -30 -78 0 c-58 -1 -84 -6 -106 -20 -37 -25 -59 -76 -50 -121 7 -41 56
-93 87 -95 12 -1 48 -2 79 -3 31 0 59 -4 63 -8 5 -5 8 -228 6 -429 l-1 -47
-68 1 c-84 0 -134 -21 -157 -69 -28 -60 -5 -128 57 -160 40 -21 6802 -21 6852
0 93 39 98 169 8 212 -30 14 -65 17 -194 17 l-158 -1 -1 2147 c-1 3364 -2
3562 -18 3587 -8 12 -28 30 -45 40 -28 17 -59 18 -361 18 -308 1 -332 -1 -362
-19 -18 -10 -39 -35 -47 -54 -15 -40 -14 177 -15 -3557 l-1 -2161 -180 0 -180
0 0 2484 c0 1365 0 2485 0 2488 1 3 -7 19 -17 35 -34 59 -49 61 -414 60 -365
-2 -363 -1 -396 -64 -16 -28 -17 -232 -18 -2506 -1 -1362 -4 -2481 -8 -2487
-4 -7 -65 -10 -178 -9 l-172 1 -2 1400 c-1 1092 -4 1406 -14 1425 -7 14 -24
34 -39 45 -25 19 -45 20 -342 23 -173 2 -331 0 -350 -3 -20 -4 -47 -20 -67
-41 l-32 -34 -1 -393 c-1 -215 -1 -849 -1 -1408 l-1 -1016 -174 0 c-96 -1
-176 3 -179 7 -3 4 -6 800 -7 1768 l-3 1761 -21 28 c-40 54 -52 56 -373 55
-163 0 -313 -1 -334 -1 -28 -1 -47 -10 -75 -35 l-37 -34 -3 -1775 -2 -1775
-180 1 -180 1 0 1034 c0 1134 3 1078 -58 1119 -25 16 -58 17 -363 17 -368 1
-366 1 -406 -61 -16 -24 -17 -98 -20 -1047 -1 -562 -2 -1031 -2 -1042 -1 -21
-3 -21 -208 -20 l-208 1 -1 3205 c0 3031 -1 3207 -18 3242 -18 36 -65 68 -103
68 -10 0 -34 -8 -53 -18z"/>
</g>
</svg>
